<?xml version="1.0"?>
<svg width="128" height="128" xmlns="http://www.w3.org/2000/svg" xmlns:svg="http://www.w3.org/2000/svg">

 <metadata id="metadata4423">image/svg+xml</metadata>
 <g>
  <title>Layer 1</title>
  <ellipse id="svg_1" cy="9.8181" cx="-0.8125" stroke-width="5" fill="#373277"/>
  <ellipse ry="60.375001" rx="62.249999" id="svg_3" cy="63.443102" cx="64.437499" stroke-linecap="null" stroke-linejoin="null" stroke-dasharray="null" stroke-width="5" fill="#1c75bc"/>
  <g stroke="null" id="layer1">
   <path clip-rule="nonzero" fill="#79aed7" fill-rule="evenodd" stroke-width="42.699272" stroke-linecap="round" stroke-linejoin="round" stroke-miterlimit="4" stroke-dashoffset="0" id="path2434" d="m66.745953,17.910231c-0.627826,0.041542 -1.248434,0.149224 -1.848271,0.336415l-42.292319,12.84428c-3.893758,1.184713 -6.168102,5.209257 -5.167262,9.14345l4.928753,44.213017c0.228179,2.011295 1.250891,3.849029 2.842068,5.106118l31.28196,24.778211c0.135239,0.116475 0.274658,0.22878 0.417195,0.336423c0.19842,0.154935 0.404146,0.301045 0.615607,0.43571c0.212514,0.135721 0.431289,0.261545 0.656326,0.375939c0.213559,0.109708 0.433379,0.207978 0.656342,0.296891l0.158729,0.060843c0.156647,0.060843 0.316414,0.110232 0.477233,0.158064c0.144635,0.041542 0.289789,0.081082 0.437559,0.118556l0.101826,0.02081l0.041716,0c0.170742,0.041542 0.343047,0.070692 0.516923,0.101392l0.496552,0.060843l0.119047,0c0.151415,0.010405 0.304409,0.02089 0.456869,0.02089c0.212514,-0.004766 0.424509,-0.02089 0.635978,-0.041542c0.253233,-0.02089 0.505948,-0.052026 0.755009,-0.1014c0.254286,-0.052026 0.506482,-0.106594 0.755017,-0.178335c0.71638,-0.202791 1.399658,-0.509555 2.027221,-0.909927l39.330988,-21.98773c2.255121,-1.263801 3.714091,-3.580923 3.875484,-6.155054l2.881695,-47.339937c0.11592,-1.969277 -0.539313,-3.906472 -1.828322,-5.402898c-0.052245,-0.060843 -0.104961,-0.119589 -0.158737,-0.178351c-0.292923,-0.316129 -0.611578,-0.607976 -0.953485,-0.870451c-0.061099,-0.052026 -0.119047,-0.090994 -0.179085,-0.138827l-0.119055,-0.081089c-0.167089,-0.125832 -0.339912,-0.24438 -0.516923,-0.356694c-0.149333,-0.081082 -0.30232,-0.163259 -0.456869,-0.237089c-0.071069,-0.031136 -0.14568,-0.070772 -0.218775,-0.1014c-0.156647,-0.081082 -0.315377,-0.150781 -0.477241,-0.217859l-0.061099,-0.02089c-0.104953,-0.031136 -0.211469,-0.070772 -0.317459,-0.1014l-36.866639,-13.536959c-0.959587,-0.35045 -1.980168,-0.505401 -3.001005,-0.454956l-0.003549,0.004933zm-1.542546,7.481541c3.310735,-0.463796 6.560067,0.314056 7.254058,1.741593c0.692985,1.425297 -1.439125,2.959737 -4.749979,3.423796c-3.310743,0.46432 -6.541291,-0.316129 -7.23422,-1.741537c-0.693974,-1.427219 1.419287,-2.959745 4.730142,-3.423851zm-21.285315,5.976839c3.505182,-0.524846 6.936806,0.363961 7.67146,1.979086c0.733656,1.613584 -1.522988,3.354231 -5.028178,3.879077c-3.505286,0.524893 -6.937787,-0.365534 -7.671452,-1.979158c-0.734709,-1.615705 1.52298,-3.35412 5.02817,-3.879005zm42.769344,0.851205c3.699637,0.504877 6.060549,2.169765 5.286524,3.720592c-0.775381,1.552892 -4.389177,2.40447 -8.088806,1.899959c-3.699749,-0.504869 -6.081542,-2.187541 -5.306481,-3.740497c0.774392,-1.550755 4.409126,-2.384613 8.108763,-1.880054zm-23.908711,0.237105c4.08858,-0.504877 8.086565,0.346288 8.943344,1.899911c0.85579,1.550867 -1.754398,3.216128 -5.843018,3.720742c-4.088588,0.504869 -8.107495,-0.34941 -8.963189,-1.899967c-0.856779,-1.552948 1.774347,-3.21608 5.862863,-3.720687zm1.470719,7.718463c2.983984,0.106586 5.477892,0.938307 6.14107,2.196858c0.882208,1.676286 -1.823592,3.472367 -6.041748,4.017483c-4.218236,0.545172 -8.359284,-0.361896 -9.241492,-2.038436c-0.88425,-1.67851 1.823577,-3.492216 6.041756,-4.037388c1.054513,-0.135713 2.105732,-0.174189 3.100414,-0.138827l0,0.00031zm-35.434127,7.232458c1.490405,0.090994 3.284947,1.683148 4.551097,4.215484c1.688752,3.376527 1.778406,7.168772 0.198412,8.450707c-1.577546,1.28029 -4.214359,-0.423756 -5.902553,-3.799878c-1.68876,-3.376368 -1.776373,-7.150614 -0.198412,-8.430905c0.394741,-0.320291 0.854745,-0.466918 1.351568,-0.43571l-0.000112,0.000302zm69.228429,3.729225c0.682815,-0.090994 1.350523,-0.031136 1.947641,0.257375c2.385247,1.144633 2.843161,5.117754 1.033527,8.866369c-1.809738,3.748455 -5.206641,5.854843 -7.591991,4.71021c-2.388525,-1.14623 -2.863006,-5.098 -1.053317,-8.846607c1.357263,-2.811395 3.614897,-4.70137 5.66414,-4.987252l0,-0.000095zm-52.553994,5.71102c1.618529,0.101384 3.59348,1.781784 4.968539,4.453042c1.833244,3.561534 1.934065,7.533885 0.218775,8.886131c-1.713192,1.35053 -4.605814,-0.435718 -6.43925,-3.997768c-1.832925,-3.561645 -1.93172,-7.555466 -0.218783,-8.905996c0.428154,-0.33848 0.931087,-0.468999 1.470719,-0.435718l0,0.00031zm30.970603,3.254246c0.682751,-0.090994 1.350571,-0.031136 1.947681,0.257375c2.385255,1.144625 2.843065,5.117754 1.033424,8.866305c-1.809738,3.748511 -5.206529,5.854954 -7.591872,4.710329c-2.388541,-1.146245 -2.843169,-5.098104 -1.033487,-8.846567c1.357263,-2.811395 3.594948,-4.701529 5.644255,-4.987347l0,-0.000095zm-45.657651,1.67372c1.362201,0.1014 3.016352,1.716016 4.173624,4.294675c1.543288,3.438196 1.622708,7.283889 0.179093,8.589335c-1.441892,1.303674 -3.862642,-0.420642 -5.405786,-3.859259c-1.543447,-3.438196 -1.62077,-7.285605 -0.179085,-8.589335c0.361321,-0.326534 0.778404,-0.467966 1.232154,-0.435726l0,0.00031zm15.700635,10.627771c1.618529,0.101392 3.573523,1.781673 4.948694,4.452946c1.833236,3.561526 1.934065,7.53398 0.218767,8.886226c-1.713192,1.35053 -4.585961,-0.435718 -6.419357,-3.997879c-1.832933,-3.561629 -1.931768,-7.555347 -0.218775,-8.905885c0.428154,-0.338488 0.931031,-0.468991 1.470671,-0.43571l0,0.000302zm51.063382,3.353135c0.682807,-0.090994 1.350627,-0.010405 1.947744,0.277661c2.385247,1.144625 2.843057,5.097984 1.033432,8.846551c-1.809754,3.748511 -5.206545,5.874605 -7.591896,4.729972c-2.388533,-1.146238 -2.86311,-5.11785 -1.053412,-8.866313c1.357351,-2.811387 3.614881,-4.701425 5.664132,-4.987355l0,-0.000516zm-64.995222,0.60491c1.276846,0.081089 2.830479,1.472827 3.915166,3.681234c1.44675,2.944344 1.512292,6.244333 0.158737,7.362191c-1.351504,1.116444 -3.621573,-0.360856 -5.067956,-3.305088c-1.445904,-2.944304 -1.510449,-6.245953 -0.158729,-7.362302c0.338875,-0.279734 0.726566,-0.403477 1.152678,-0.375923l0.000104,-0.000111zm44.127373,9.191552c0.682743,-0.090986 1.350571,-0.010405 1.947689,0.277653c2.385239,1.144577 2.862903,5.117754 1.053261,8.866321c-1.809746,3.748511 -5.226374,5.854835 -7.611725,4.71021c-2.388533,-1.146238 -2.843273,-5.117858 -1.033575,-8.866313c1.357359,-2.811498 3.595044,-4.701529 5.644351,-4.987347l0,-0.000524zm-29.241586,1.673728c1.618529,0.101392 3.593432,1.781784 4.968539,4.452946c1.833236,3.561534 1.91422,7.53398 0.19842,8.886178c-1.713152,1.350522 -4.585929,-0.435726 -6.419365,-3.997721c-1.832925,-3.561741 -1.93172,-7.535704 -0.218791,-8.886234c0.428689,-0.338488 0.931095,-0.488237 1.470671,-0.454964l0.000526,-0.000207z"/>
  </g>
 </g>
</svg>